<?xml version="1.0" standalone="no"?>
<!DOCTYPE svg PUBLIC "-//W3C//DTD SVG 20010904//EN"
 "http://www.w3.org/TR/2001/REC-SVG-20010904/DTD/svg10.dtd">
<svg version="1.0" xmlns="http://www.w3.org/2000/svg"
 width="924.000000pt" height="924.000000pt" viewBox="0 0 924.000000 924.000000"
 preserveAspectRatio="xMidYMid meet">
<metadata>
Created by potrace 1.14, written by Peter Selinger 2001-2017
</metadata>
<g transform="translate(0.000000,924.000000) scale(0.100000,-0.100000)"
fill="#000000" stroke="none">
<path d="M2 4968 l3 -2493 28 -90 c90 -287 295 -492 582 -582 l90 -28 1888 -3
1887 -2 0 600 0 600 -1600 0 -1600 0 0 2245 0 2245 -640 0 -640 0 2 -2492z"/>
<path d="M3130 7451 c0 -5 509 -1281 1130 -2835 622 -1555 1130 -2831 1130
-2837 0 -5 297 -9 788 -9 l788 0 1123 2812 c619 1547 1130 2828 1138 2846 l13
32 -721 -2 -721 -3 -806 -2017 c-443 -1110 -808 -2018 -812 -2018 -4 0 -11 13
-16 29 -5 16 -367 925 -804 2020 l-795 1990 -717 1 c-412 0 -718 -4 -718 -9z"/>
</g>
</svg>
